<svg width="39" height="39" viewBox="0 0 39 39" fill="none" xmlns="http://www.w3.org/2000/svg">
<path d="M27.5361 23.6323C25.3957 21.7699 22.6002 20.6426 19.5381 20.6426C16.476 20.6426 13.6805 21.7699 11.5362 23.6361C11.477 23.6895 11.4408 23.7638 11.4351 23.8433C11.4294 23.9228 11.4547 24.0014 11.5058 24.0627L12.8769 25.6966C12.9873 25.8261 13.1815 25.8413 13.311 25.7309C14.9716 24.2684 17.1501 23.3848 19.5381 23.3848C21.9261 23.3848 24.1046 24.2684 25.7651 25.7271C25.8946 25.8375 26.0889 25.8223 26.1993 25.6928L27.5704 24.0589C27.677 23.9332 27.6618 23.7428 27.5361 23.6323ZM32.0074 18.2965C28.6292 15.4819 24.2836 13.7871 19.5381 13.7871C14.7926 13.7871 10.447 15.4819 7.06494 18.2965C7.00307 18.3487 6.96434 18.4232 6.95721 18.5038C6.95007 18.5844 6.97511 18.6646 7.02685 18.7269L8.39795 20.3607C8.50459 20.4902 8.69883 20.5055 8.82451 20.3988C11.7305 17.9842 15.4667 16.5293 19.5381 16.5293C23.6095 16.5293 27.3457 17.9842 30.2479 20.3988C30.3773 20.5055 30.5678 20.4902 30.6744 20.3607L32.0455 18.7269C32.1521 18.5974 32.1369 18.4031 32.0074 18.2965ZM36.452 13.0025C31.8284 9.20918 25.9099 6.93164 19.4619 6.93164C13.0559 6.93164 7.17539 9.17871 2.56318 12.9264C2.53149 12.9518 2.50522 12.9834 2.48591 13.0191C2.4666 13.0549 2.45464 13.0942 2.45073 13.1346C2.44683 13.1751 2.45106 13.2159 2.46318 13.2547C2.47529 13.2935 2.49505 13.3295 2.52129 13.3605L3.89238 14.9944C3.99902 15.1201 4.18945 15.1392 4.31514 15.0363C8.45508 11.681 13.7224 9.67383 19.4619 9.67383C25.2434 9.67383 30.5449 11.7114 34.6963 15.1087C34.8258 15.2153 35.0162 15.1963 35.1228 15.0668L36.4939 13.4329C36.6044 13.3034 36.5854 13.1092 36.452 13.0025ZM17.0625 29.6309C17.0625 30.2773 17.3193 30.8973 17.7764 31.3544C18.2335 31.8116 18.8535 32.0684 19.5 32.0684C20.1465 32.0684 20.7665 31.8116 21.2236 31.3544C21.6807 30.8973 21.9375 30.2773 21.9375 29.6309C21.9375 28.9844 21.6807 28.3644 21.2236 27.9073C20.7665 27.4502 20.1465 27.1934 19.5 27.1934C18.8535 27.1934 18.2335 27.4502 17.7764 27.9073C17.3193 28.3644 17.0625 28.9844 17.0625 29.6309Z" fill="white"/>
</svg>
