<svg width="39" height="39" viewBox="0 0 39 39" fill="none" xmlns="http://www.w3.org/2000/svg">
<path d="M19.4997 39C19.1765 39 18.8665 38.8716 18.6379 38.643C18.4094 38.4145 18.2809 38.1045 18.2809 37.7812V34.6296L16.7063 36.2066C16.4775 36.4352 16.1672 36.5634 15.8438 36.5632C15.5204 36.563 15.2103 36.4343 14.9818 36.2054C14.7533 35.9766 14.625 35.6663 14.6252 35.3429C14.6255 35.0195 14.7542 34.7094 14.983 34.4809L18.2809 31.1829V21.6109L9.99345 26.3957L8.78445 30.9051C8.70041 31.2173 8.49577 31.4834 8.21556 31.6447C7.93534 31.8061 7.6025 31.8495 7.29026 31.7655C6.97802 31.6815 6.71195 31.4768 6.55058 31.1966C6.38922 30.9164 6.34578 30.5836 6.42982 30.2713L7.00751 28.1214L4.27751 29.6961C3.99774 29.8551 3.6664 29.8971 3.35581 29.8128C3.04522 29.7284 2.78059 29.5247 2.61967 29.246C2.45875 28.9673 2.41461 28.6362 2.49687 28.3251C2.57913 28.0139 2.78112 27.748 3.05876 27.5852L5.78876 26.0106L3.63401 25.4329C3.4794 25.3913 3.33451 25.3196 3.20759 25.222C3.08068 25.1244 2.97423 25.0027 2.89433 24.864C2.81443 24.7252 2.76265 24.5721 2.74193 24.4133C2.72121 24.2546 2.73196 24.0933 2.77357 23.9387C2.81518 23.7841 2.88684 23.6392 2.98445 23.5123C3.08206 23.3854 3.20371 23.2789 3.34246 23.199C3.48121 23.1191 3.63434 23.0673 3.7931 23.0466C3.95186 23.0259 4.11315 23.0366 4.26776 23.0783L8.77226 24.2848L17.0622 19.5L8.7747 14.7152L4.26532 15.9218C3.95511 15.9991 3.62694 15.9514 3.35155 15.789C3.07616 15.6266 2.8756 15.3625 2.79311 15.0537C2.71062 14.7448 2.75279 14.4159 2.91054 14.1378C3.0683 13.8597 3.329 13.6548 3.63645 13.5671L5.78876 12.9894L3.05876 11.4148C2.91903 11.3354 2.7964 11.2291 2.69793 11.102C2.59945 10.975 2.52707 10.8298 2.48496 10.6747C2.44285 10.5195 2.43183 10.3576 2.45255 10.1982C2.47327 10.0389 2.52531 9.88514 2.60567 9.74594C2.68604 9.60675 2.79314 9.48483 2.92082 9.38719C3.0485 9.28956 3.19423 9.21815 3.34962 9.17707C3.50501 9.13598 3.66699 9.12604 3.82624 9.14782C3.98548 9.16959 4.13885 9.22265 4.27751 9.30394L7.00751 10.8786L6.42982 8.72625C6.38547 8.57068 6.37253 8.40784 6.39176 8.24723C6.41099 8.08661 6.46201 7.93143 6.54183 7.79073C6.62165 7.65003 6.72868 7.52663 6.85669 7.42772C6.98469 7.32881 7.1311 7.25637 7.28739 7.21463C7.44368 7.17289 7.60671 7.16268 7.76698 7.1846C7.92726 7.20651 8.08156 7.26011 8.22091 7.34228C8.36025 7.42444 8.48184 7.53352 8.5786 7.66317C8.67535 7.79281 8.74533 7.94041 8.78445 8.09737L9.99101 12.6043L18.2809 17.3891V7.81706L14.983 4.51912C14.8697 4.40597 14.7798 4.27161 14.7184 4.1237C14.657 3.9758 14.6253 3.81725 14.6252 3.65711C14.6251 3.49697 14.6566 3.33838 14.7177 3.19039C14.7789 3.0424 14.8686 2.90791 14.9818 2.79459C15.0949 2.68128 15.2293 2.59136 15.3772 2.52998C15.5251 2.46859 15.6837 2.43694 15.8438 2.43682C16.0039 2.43671 16.1625 2.46814 16.3105 2.52932C16.4585 2.59049 16.593 2.68022 16.7063 2.79338L18.2809 4.37044V1.21875C18.2809 0.895517 18.4094 0.585524 18.6379 0.356964C18.8665 0.128404 19.1765 0 19.4997 0C19.8229 0 20.1329 0.128404 20.3615 0.356964C20.59 0.585524 20.7184 0.895517 20.7184 1.21875V4.37044L22.2955 2.79338C22.5244 2.56485 22.8346 2.43659 23.158 2.43682C23.4814 2.43705 23.7915 2.56575 24.02 2.79459C24.2486 3.02344 24.3768 3.3337 24.3766 3.65711C24.3764 3.98052 24.2477 4.2906 24.0188 4.51912L20.7184 7.81706V17.3891L29.0059 12.6043L30.2149 8.09494C30.299 7.7827 30.5036 7.51663 30.7838 7.35526C31.0641 7.1939 31.3969 7.15046 31.7091 7.2345C32.0214 7.31854 32.2874 7.52318 32.4488 7.80339C32.6102 8.08361 32.6536 8.41644 32.5696 8.72869L31.9943 10.8786L34.7243 9.30394C35.0041 9.14487 35.3354 9.10292 35.646 9.18724C35.9566 9.27157 36.2212 9.47532 36.3822 9.75403C36.5431 10.0327 36.5872 10.3638 36.505 10.6749C36.4227 10.9861 36.2207 11.252 35.9431 11.4148L33.2131 12.9894L35.3654 13.5671C35.6776 13.6512 35.9437 13.8558 36.1051 14.136C36.2664 14.4162 36.3099 14.7491 36.2258 15.0613C36.1418 15.3736 35.9371 15.6396 35.6569 15.801C35.3767 15.9624 35.0439 16.0058 34.7316 15.9218L30.2271 14.7152L21.9372 19.5L30.2247 24.2848L34.7316 23.0783C35.0439 22.9945 35.3766 23.0383 35.6566 23.1999C35.9366 23.3615 36.1409 23.6277 36.2246 23.9399C36.3083 24.2521 36.2646 24.5849 36.103 24.8648C35.9414 25.1448 35.6752 25.3492 35.3629 25.4329L33.2106 26.0106L35.9406 27.5852C36.2183 27.748 36.4203 28.0139 36.5025 28.3251C36.5848 28.6362 36.5406 28.9673 36.3797 29.246C36.2188 29.5247 35.9542 29.7284 35.6436 29.8128C35.333 29.8971 35.0017 29.8551 34.7219 29.6961L31.9919 28.1214L32.5671 30.2738C32.6115 30.4293 32.6244 30.5922 32.6052 30.7528C32.586 30.9134 32.5349 31.0686 32.4551 31.2093C32.3753 31.35 32.2683 31.4734 32.1403 31.5723C32.0123 31.6712 31.8659 31.7436 31.7096 31.7854C31.5533 31.8271 31.3902 31.8373 31.23 31.8154C31.0697 31.7935 30.9154 31.7399 30.776 31.6577C30.6367 31.5756 30.5151 31.4665 30.4184 31.3368C30.3216 31.2072 30.2516 31.0596 30.2125 30.9026L29.0059 26.3957L20.7184 21.6109V31.1829L24.0164 34.4809C24.2452 34.7094 24.3739 35.0195 24.3742 35.3429C24.3744 35.6663 24.2461 35.9766 24.0176 36.2054C23.7891 36.4343 23.479 36.563 23.1556 36.5632C22.8322 36.5634 22.5219 36.4352 22.2931 36.2066L20.716 34.6296V37.7812C20.716 38.1045 20.5876 38.4145 20.359 38.643C20.1305 38.8716 19.8205 39 19.4973 39H19.4997Z" fill="white"/>
</svg>
