<svg width="39" height="39" viewBox="0 0 39 39" fill="none" xmlns="http://www.w3.org/2000/svg">
<path d="M14.5869 28.6406H21.9756C24.2273 28.6381 26.3861 27.7424 27.9783 26.1502C29.5706 24.558 30.4662 22.3992 30.4688 20.1475V18.8906H32.2969C33.7514 18.8906 35.1464 18.3128 36.1749 17.2843C37.2034 16.2558 37.7812 14.8608 37.7812 13.4062C37.7812 11.9517 37.2034 10.5567 36.1749 9.52821C35.1464 8.49969 33.7514 7.92188 32.2969 7.92188H6.09375V20.1475C6.09631 22.3992 6.99195 24.558 8.58417 26.1502C10.1764 27.7424 12.3352 28.6381 14.5869 28.6406ZM30.4688 10.3594H32.2969C33.105 10.3594 33.8799 10.6804 34.4513 11.2518C35.0227 11.8232 35.3438 12.5982 35.3438 13.4062C35.3438 14.2143 35.0227 14.9893 34.4513 15.5607C33.8799 16.1321 33.105 16.4531 32.2969 16.4531H30.4688V10.3594ZM8.53125 10.3594H28.0312V20.1475C28.0295 21.753 27.3909 23.2922 26.2556 24.4275C25.1203 25.5627 23.5811 26.2013 21.9756 26.2031H14.5869C12.9814 26.2013 11.4422 25.5627 10.3069 24.4275C9.17163 23.2922 8.53304 21.753 8.53125 20.1475V10.3594ZM1.21875 31.6875H37.7812V34.125H1.21875V31.6875Z" fill="white"/>
</svg>
