<svg width="39" height="39" viewBox="0 0 39 39" fill="none" xmlns="http://www.w3.org/2000/svg">
<path d="M32.9449 16.0373L27.3516 8.0504L30.015 6.18652L35.6066 14.1734L32.9449 16.0373ZM29.8834 20.1648L27.0884 16.1689L13.7764 25.4899L16.5714 29.4825L13.9096 31.348L6.4541 20.6978L9.11585 18.8339L11.9109 22.8281L25.2229 13.5071L22.4279 9.5129L25.0896 7.64902L32.5451 18.2976L29.8834 20.1631V20.1648ZM33.7427 11.51L36.4045 9.64615L34.5406 6.9844L31.8789 8.84827L33.7427 11.51ZM11.6476 30.9499L6.05435 22.963L3.3926 24.8269L8.98423 32.8138L11.6476 30.9499ZM7.12035 30.152L4.4586 32.0159L2.59473 29.3541L5.25648 27.4903L7.12035 30.152Z" fill="white"/>
</svg>
