<svg width="39" height="39" viewBox="0 0 39 39" fill="none" xmlns="http://www.w3.org/2000/svg">
<path d="M30.8425 27.625H3.25V30.875H35.75V27.625H30.8425ZM34.125 26C33.6863 19.3862 28.8438 13.975 22.49 12.6588C22.7001 12.1639 22.7846 11.6247 22.7359 11.0893C22.6871 10.5539 22.5068 10.0389 22.2108 9.59008C21.9148 9.14127 21.5124 8.77264 21.0394 8.51702C20.5665 8.2614 20.0376 8.12673 19.5 8.125C18.9624 8.12673 18.4335 8.2614 17.9606 8.51702C17.4876 8.77264 17.0852 9.14127 16.7892 9.59008C16.4932 10.0389 16.3129 10.5539 16.2641 11.0893C16.2154 11.6247 16.2999 12.1639 16.51 12.6588C10.1562 13.975 5.31375 19.3862 4.875 26H34.125ZM19.5 15.5675C24.2938 15.5675 28.3888 18.5413 30.0625 22.7337H8.9375C9.77977 20.6201 11.2364 18.8075 13.1192 17.53C15.0021 16.2526 17.2247 15.569 19.5 15.5675Z" fill="white"/>
</svg>
