<svg width="39" height="39" viewBox="0 0 39 39" fill="none" xmlns="http://www.w3.org/2000/svg">
<path d="M10.3594 4.875C8.58189 4.87597 6.87749 5.5825 5.62062 6.83937C4.36375 8.09624 3.65722 9.80064 3.65625 11.5781C3.65625 15.277 6.66047 18.2812 10.3594 18.2812C11.3502 18.2812 12.2826 18.0338 13.1393 17.6341L19.5 26.013V32.9062H14.625V35.3438H26.8125V32.9062H21.9375V26.013L32.6783 11.845L32.9062 11.5026V9.75H16.7578C16.0205 6.9225 13.3868 4.875 10.3594 4.875ZM10.3594 7.3125C12.0534 7.3125 13.5159 8.33625 14.168 9.75H8.53125V11.5026L8.76038 11.8438L11.6159 15.6158C11.2128 15.7619 10.788 15.8389 10.3594 15.8438C9.79739 15.8503 9.23977 15.7444 8.71929 15.5324C8.19881 15.3203 7.72597 15.0063 7.32856 14.6089C6.93115 14.2115 6.61719 13.7387 6.40514 13.2182C6.19309 12.6977 6.08721 12.1401 6.09375 11.5781C6.08721 11.0161 6.19309 10.4585 6.40514 9.93804C6.61719 9.41756 6.93115 8.94472 7.32856 8.54731C7.72597 8.1499 8.19881 7.83594 8.71929 7.62389C9.23977 7.41184 9.79739 7.30596 10.3594 7.3125ZM12.1119 12.1875H29.3256L27.4974 14.625H16.4531L18.2812 17.0625H25.6315L20.7188 23.5755L12.1119 12.1875Z" fill="white"/>
</svg>
